<?xml version="1.0" encoding="UTF-8"?>
<svg xmlns="http://www.w3.org/2000/svg" width="24" height="24" viewBox="0 0 24 24" fill="none">
  <rect width="24" height="24" fill="#232F3E"/>
  <path d="M8.2 10.5C8.2 10.8 8.2 11.1 8.3 11.4C8.4 11.7 8.5 11.9 8.6 12.1C8.7 12.3 8.7 12.4 8.7 12.5C8.7 12.6 8.7 12.7 8.6 12.8C8.5 12.9 8.4 12.9 8.3 12.9L7.7 12.5C7.5 12.3 7.3 12.1 7.2 11.8C7 11.5 7 11.1 7 10.6C7 10.3 7 10 7.1 9.7C7.2 9.4 7.3 9.2 7.4 9C7.5 8.8 7.7 8.6 7.9 8.5C8.1 8.4 8.3 8.3 8.5 8.3C8.7 8.3 8.9 8.3 9.1 8.4C9.3 8.5 9.4 8.6 9.5 8.7C9.6 8.8 9.7 9 9.8 9.2C9.9 9.4 9.9 9.6 9.9 9.9V10.5H8.2ZM8.9 9.6C8.9 9.3 8.8 9.1 8.7 9C8.6 8.9 8.5 8.8 8.4 8.8C8.3 8.8 8.1 8.9 8 9C7.9 9.1 7.8 9.3 7.8 9.6V10H8.9V9.6Z" fill="white"/>
  <path d="M10.3 12.9C10.2 12.9 10.1 12.9 10.1 12.8C10 12.7 10 12.7 10 12.6V8.5C10 8.4 10 8.3 10.1 8.3C10.2 8.2 10.2 8.2 10.3 8.2H10.9C11 8.2 11.1 8.2 11.1 8.3C11.1 8.4 11.2 8.4 11.2 8.5V9C11.3 8.8 11.5 8.6 11.7 8.5C11.9 8.4 12.1 8.3 12.3 8.3C12.5 8.3 12.7 8.3 12.9 8.4C13.1 8.5 13.2 8.6 13.3 8.8C13.4 8.9 13.5 9.1 13.6 9.2C13.7 9.4 13.7 9.6 13.7 9.8V12.6C13.7 12.7 13.7 12.8 13.6 12.8C13.5 12.9 13.5 12.9 13.4 12.9H12.7C12.6 12.9 12.5 12.9 12.5 12.8C12.4 12.7 12.4 12.7 12.4 12.6V10C12.4 9.8 12.3 9.6 12.3 9.5C12.2 9.4 12.1 9.3 12 9.3C11.9 9.3 11.7 9.4 11.6 9.5C11.5 9.6 11.4 9.8 11.4 10V12.6C11.4 12.7 11.4 12.8 11.3 12.8C11.2 12.9 11.2 12.9 11.1 12.9H10.3Z" fill="white"/>
  <path d="M16.2 8.3C16.5 8.3 16.7 8.4 16.9 8.5C17.1 8.6 17.2 8.8 17.2 9V12.6C17.2 12.7 17.2 12.8 17.1 12.8C17 12.9 17 12.9 16.9 12.9H16.3C16.2 12.9 16.1 12.9 16.1 12.8C16 12.7 16 12.7 16 12.6V12.2C15.9 12.4 15.8 12.6 15.6 12.7C15.4 12.8 15.2 12.9 15 12.9C14.7 12.9 14.4 12.8 14.2 12.7C14 12.6 13.9 12.4 13.9 12.1C13.9 11.9 13.9 11.7 14 11.6C14.1 11.5 14.2 11.4 14.3 11.3C14.4 11.2 14.6 11.2 14.8 11.1C15 11 15.2 11 15.4 11H16V10.6C16 10.5 16 10.4 15.9 10.3C15.8 10.2 15.7 10.2 15.6 10.2C15.5 10.2 15.4 10.2 15.3 10.3C15.2 10.4 15.2 10.5 15.2 10.6C15.2 10.7 15.2 10.8 15.1 10.8C15 10.9 15 10.9 14.9 10.9H14.3C14.2 10.9 14.1 10.9 14.1 10.8C14 10.7 14 10.7 14 10.6C14 10.4 14.1 10.2 14.2 10.1C14.3 9.9 14.4 9.8 14.6 9.7C14.8 9.6 14.9 9.5 15.1 9.5C15.3 9.4 15.5 9.4 15.7 9.4C15.9 9.4 16.1 9.4 16.2 9.4V8.3ZM15.6 12C15.7 12 15.9 11.9 16 11.8C16.1 11.7 16.1 11.6 16.1 11.5V11.4H15.7C15.6 11.4 15.5 11.4 15.5 11.4C15.4 11.4 15.4 11.5 15.3 11.5C15.3 11.5 15.2 11.6 15.2 11.6C15.2 11.7 15.2 11.7 15.3 11.8C15.3 11.9 15.4 12 15.6 12Z" fill="white"/>
</svg> 